<svg width="500" height="260" xmlns="http://www.w3.org/2000/svg">

  <rect width="500" height="260" rx="20" fill="#0d1117"/>

  <text x="30" y="40"
        fill="#58a6ff"
        font-size="22"
        font-family="Arial"
        font-weight="bold">
    My Most Used Languages
  </text>
  <!-- Astro -->
  <text x="30" y="85"
        fill="white"
        font-size="14"
        font-family="Arial">
    Astro
  </text>

  <rect x="120" y="70" width="300" height="18" rx="9"
        fill="#21262d"/>

  <rect x="120" y="70" width="210" height="18" rx="9"
        fill="#58a6ff"/>

  <text x="435" y="85"
        fill="#58a6ff"
        font-size="14"
        font-family="Arial">
    45%
  </text>
  <!-- JavaScript -->
  <text x="30" y="85"
        fill="white"
        font-size="14"
        font-family="Arial">
    JavaScript
  </text>

  <rect x="120" y="70" width="300" height="18" rx="9"
        fill="#21262d"/>

  <rect x="120" y="70" width="210" height="18" rx="9"
        fill="#58a6ff"/>

  <text x="435" y="85"
        fill="#58a6ff"
        font-size="14"
        font-family="Arial">
    35%
  </text>


  <!-- HTML -->
  <text x="30" y="130"
        fill="white"
        font-size="14"
        font-family="Arial">
    HTML
  </text>

  <rect x="120" y="115" width="300" height="18" rx="9"
        fill="#21262d"/>

  <rect x="120" y="115" width="150" height="18" rx="9"
        fill="#79c0ff"/>

  <text x="435" y="130"
        fill="#79c0ff"
        font-size="14"
        font-family="Arial">
    50%
  </text>


  <!-- CSS -->
  <text x="30" y="175"
        fill="white"
        font-size="14"
        font-family="Arial">
    CSS
  </text>

  <rect x="120" y="160" width="300" height="18" rx="9"
        fill="#21262d"/>

  <rect x="120" y="160" width="105" height="18" rx="9"
        fill="#a5d6ff"/>

  <text x="435" y="175"
        fill="#a5d6ff"
        font-size="14"
        font-family="Arial">
    70%
  </text>

</svg>
